<?xml version="1.0" standalone="no"?>
<!DOCTYPE svg PUBLIC "-//W3C//DTD SVG 20010904//EN"
 "http://www.w3.org/TR/2001/REC-SVG-20010904/DTD/svg10.dtd">
<svg version="1.0" xmlns="http://www.w3.org/2000/svg"
 width="512.000000pt" height="512.000000pt" viewBox="0 0 512.000000 512.000000"
 preserveAspectRatio="xMidYMid meet">

<g transform="translate(0.000000,512.000000) scale(0.100000,-0.100000)"
fill="#000000" stroke="none">
<path d="M2300 5079 c-464 -50 -906 -226 -1287 -510 -137 -103 -391 -358 -495
-499 -274 -369 -441 -787 -499 -1245 -18 -142 -15 -473 6 -620 78 -562 312
-1050 695 -1448 320 -333 709 -567 1153 -692 159 -44 179 -45 223 -1 l34 34 0
316 c0 268 -2 322 -16 347 -24 48 -65 59 -221 59 -87 0 -158 5 -191 14 -77 21
-182 87 -260 164 -59 59 -213 252 -268 337 l-19 30 50 -29 c28 -16 83 -54 124
-85 41 -31 88 -67 105 -79 17 -13 66 -41 110 -62 200 -99 411 -92 507 18 56
64 72 109 77 215 7 150 -3 163 -156 213 -352 114 -666 372 -815 669 -73 147
-106 336 -88 502 25 223 106 403 261 578 61 69 62 70 57 120 -3 27 -14 81 -26
120 -39 129 -25 298 34 415 l25 50 55 -24 c88 -39 186 -108 278 -194 47 -45
98 -84 113 -88 17 -4 52 0 89 10 278 78 389 96 605 96 216 0 327 -18 605 -96
35 -10 72 -14 87 -11 14 4 69 46 122 95 91 83 208 164 288 197 l38 15 24 -48
c65 -129 74 -318 22 -462 -16 -47 -24 -85 -21 -102 4 -14 33 -57 66 -94 149
-169 235 -361 259 -577 58 -522 -355 -1018 -1000 -1202 -148 -42 -172 -80
-127 -202 62 -163 60 -145 66 -708 6 -559 6 -550 58 -574 37 -17 71 -13 184
18 231 65 483 175 679 296 291 180 575 455 769 743 416 620 543 1389 346 2103
-128 462 -360 852 -701 1178 -393 375 -869 606 -1414 687 -125 19 -489 27
-610 13z"/>
</g>
</svg>
